<svg id="Capa_1" enable-background="new 0 0 512 512" height="512" viewBox="0 0 512 512" width="512" xmlns="http://www.w3.org/2000/svg"><g><path d="m219.787 241-90-90h-45.765l60.004 90z"/><path d="m129.787 361 90-90h-75.761l-60.004 90z"/><path d="m270.998 219.789 90-90v-45.762l-90 60z"/><path d="m240.998 219.789v-75.762l-90-60v45.762z"/><path d="m240.998 292.211-90 90v45.762l90-60z"/><path d="m270.998 292.211v75.762l90 60.003v-45.765z"/><path d="m255.998 394.032-89.998 59.997 81.678 55.452c2.52 1.685 5.42 2.52 8.32 2.52s5.801-.835 8.32-2.52l81.676-55.45z"/><path d="m292.209 271 90 90h45.762l-60-90z"/><path d="m509.447 247.021-55.401-81.046-60.016 90.025 59.978 89.971 55.498-82.31c3.34-5.039 3.325-11.601-.059-16.64z"/><path d="m117.966 256-59.998-89.996-55.45 81.676c-3.354 5.039-3.354 11.602 0 16.641l55.45 81.676z"/><path d="m255.998 117.968 89.998-59.996-81.678-55.445c-5.039-3.369-11.602-3.369-16.641 0l-81.677 55.444z"/><path d="m382.209 151-90 90h75.762l60.003-90z"/></g></svg>