<svg id="Capa_1" enable-background="new 0 0 512 512" height="512" viewBox="0 0 512 512" width="512" xmlns="http://www.w3.org/2000/svg"><g><path d="m333.157 161.946 16.897 16.897 130.507-43.502c-23.712-43.958-59.943-80.189-103.901-103.901z"/><path d="m512 256c0-32.926-7.48-64.312-18.893-93.23l-132.107 44.035v98.39l132.105 44.039c11.413-28.92 18.895-60.308 18.895-93.234z"/><path d="m151 206.805-132.107-44.035c-11.413 28.918-18.893 60.304-18.893 93.23s7.48 64.312 18.893 93.23l132.107-44.035z"/><path d="m331 309.789v-107.578l-21.211-21.211h-107.578l-21.211 21.211v107.578l21.211 21.211h107.578z"/><path d="m161.946 178.843 16.897-16.897-43.504-130.505c-43.956 23.712-80.187 59.943-103.9 103.9z"/><path d="m305.195 361h-98.388l-44.033 132.107c28.918 11.411 60.302 18.893 93.226 18.893 32.926 0 64.314-7.482 93.234-18.895z"/><path d="m350.054 333.157-16.897 16.897 43.504 130.505c43.954-23.712 80.186-59.943 103.898-103.898z"/><path d="m178.843 350.054-16.897-16.897-130.507 43.502c23.714 43.958 59.945 80.187 103.905 103.901z"/><path d="m206.805 151h98.39l44.035-132.107c-28.918-11.413-60.304-18.893-93.23-18.893s-64.314 7.482-93.234 18.895z"/></g></svg>