<svg id="Capa_1" enable-background="new 0 0 512 512" height="512" viewBox="0 0 512 512" width="512" xmlns="http://www.w3.org/2000/svg"><g><path d="m332.743 150.385 40.801-1.959 36.143-95.427c-2.657-2.016-5.272-4.08-8.007-5.991l-79.691 63.948z"/><path d="m179.257 361.615-40.803 1.959-36.145 95.424c2.655 2.016 5.27 4.078 8.005 5.991l79.695-63.948z"/><path d="m117.358 177.448-102.052-4.896c-1.088 3.129-2.287 6.198-3.256 9.38l85.593 56.127 34.182-22.416z"/><path d="m4.896 213.119c-2.38 13.972-4.896 28.24-4.896 42.881s2.516 28.909 4.896 42.881l65.391-42.881z"/><path d="m353.646 277.87 33.351-21.87-33.351-21.87c-5.874-3.853-8.291-11.279-5.801-17.856l14.112-37.256-39.805 1.91c-6.625.414-13.27-3.994-15.19-11.045l-10.486-38.452-31.086 24.946c-5.478 4.394-13.301 4.395-18.779 0l-31.086-24.944-10.486 38.45c-1.924 7.065-8.581 11.458-15.19 11.045l-39.805-1.91 14.112 37.256c2.49 6.577.073 14.004-5.801 17.856l-33.352 21.87 33.351 21.87c5.874 3.853 8.291 11.279 5.801 17.856l-14.112 37.256 39.805-1.91c6.987-.63 13.345 4.248 15.19 11.045l10.485 38.45 31.088-24.944c5.479-4.395 13.301-4.395 18.779 0l31.088 24.944 10.485-38.45c1.846-6.797 7.969-11.675 15.19-11.045l39.807 1.91-14.114-37.256c-2.491-6.577-.074-14.003 5.8-17.856z"/><path d="m406.234 365.146 27.713 73.156c20.499-20.015 37.487-43.493 50.358-69.408z"/><path d="m380.175 215.644 34.18 22.418 85.594-56.129c-.969-3.182-2.17-6.253-3.257-9.382l-102.05 4.898z"/><path d="m332.743 361.615-10.752 39.426 79.697 63.946c2.734-1.912 5.35-3.975 8.005-5.991l-36.147-95.422z"/><path d="m256 386.562-31.87 25.573 26.889 99.613c1.674.033 3.3.253 4.98.253s3.307-.22 4.98-.253l26.889-99.613z"/><path d="m484.307 143.106c-12.87-25.919-29.863-49.4-50.363-69.413l-27.713 73.163z"/><path d="m138.457 148.426 40.8 1.959 10.754-39.426-79.693-63.95c-2.734 1.912-5.35 3.975-8.004 5.989z"/><path d="m198.617 432.609-61.078 49.01c25.047 13.204 52.573 22.18 81.647 26.413z"/><path d="m313.383 432.607-20.568 75.425c29.075-4.233 56.602-13.207 81.649-26.413z"/><path d="m507.102 298.889c2.382-13.977 4.898-28.246 4.898-42.889 0-14.641-2.516-28.909-4.896-42.881l-65.392 42.883z"/><path d="m414.355 273.943-34.18 22.414 14.469 38.196 102.048 4.898c1.088-3.127 2.289-6.196 3.257-9.377z"/><path d="m313.382 79.389 61.073-49.012c-25.047-13.201-52.57-22.177-81.642-26.409z"/><path d="m78.053 438.303 27.715-73.162-78.074 3.748c12.868 25.92 29.858 49.399 50.359 69.414z"/><path d="m256 125.438 31.868-25.574-26.891-99.611c-1.672-.033-3.298-.253-4.977-.253s-3.301.218-4.971.251l-26.896 99.615z"/><path d="m198.62 79.393 20.572-75.427c-29.073 4.233-56.603 13.207-81.65 26.413z"/><path d="m131.825 296.356-34.182-22.416-85.593 56.128c.969 3.181 2.168 6.251 3.256 9.379l102.05-4.896z"/><path d="m105.771 146.856-27.713-73.163c-20.502 20.017-37.494 43.497-50.365 69.415z"/></g></svg>