<svg id="Capa_1" enable-background="new 0 0 512 512" height="512" viewBox="0 0 512 512" width="512" xmlns="http://www.w3.org/2000/svg"><g><path d="m229.772 340.985-58.975-58.975-46.816 104.646z"/><path d="m207.36 207.361h97.279v97.279h-97.279z" transform="matrix(.707 -.707 .707 .707 -106.039 256.001)"/><path d="m341.203 282.01-58.975 58.975 105.791 45.671z"/><path d="m170.797 229.99 58.975-58.975-105.791-45.671z"/><path d="m149.567 256-63.207-141.287-54.287 135.716c-1.43 3.576-1.43 7.565 0 11.142l54.287 135.717z"/><path d="m282.228 171.015 58.975 58.975 46.816-104.646z"/><path d="m479.927 250.429-54.287-135.717-63.207 141.288 63.208 141.288 54.287-135.717c1.429-3.576 1.429-7.566-.001-11.142z"/><path d="m256 362.338-146.58 63.281 138.8 84.206c2.391 1.45 5.085 2.176 7.78 2.176s5.39-.725 7.78-2.176l138.8-84.206z"/><path d="m256 149.662 146.581-63.281-138.801-84.205c-4.781-2.901-10.779-2.901-15.561 0l-138.8 84.206z"/></g></svg>