<svg id="Capa_1" enable-background="new 0 0 512 512" height="512" viewBox="0 0 512 512" width="512" xmlns="http://www.w3.org/2000/svg"><g><path d="m157.476 321.504c-43.591-35.345-100.534-53.099-157.476-49.742 3.071 49.854 22.229 95.79 49.966 133.872 27.398-37.612 64.823-66.237 107.51-84.13z"/><path d="m157.453 190.602c-42.781-17.855-80.138-46.527-107.509-84.208-27.72 38.071-46.871 83.992-49.944 133.824 56.808 3.338 113.888-14.363 157.453-49.616z"/><path d="m256 181c14.321 0 28.299-1.838 42.057-4.477-18.484-22.689-32.289-48.073-41.858-74.996-9.604 26.942-24.025 52.17-42.74 75.086 13.858 2.633 27.991 4.387 42.541 4.387z"/><path d="m321.684 201.933c-21.178 5.68-43.147 9.067-65.684 9.067-22.723 0-44.583-3.664-65.702-9.247-25.816 24.21-56.028 42.433-88.746 54.069 32.73 11.611 62.752 30.211 88.619 54.489 21.181-5.647 43.104-9.311 65.829-9.311 22.742 0 44.623 3.668 65.762 9.263 26.056-24.439 56.395-42.508 89.13-54.067-32.632-11.519-62.971-29.643-89.208-54.263z"/><path d="m256 331c-14.515 0-28.634 1.785-42.49 4.437 18.578 22.859 33.122 48.23 42.687 75.438 9.606-27.191 23.586-52.753 42.118-75.536-13.785-2.607-27.848-4.339-42.315-4.339z"/><path d="m354.604 321.431c42.75 17.862 80.099 46.509 107.457 84.168 27.678-38.018 46.822-83.86 49.931-133.612-56.672-3.276-113.591 13.993-157.388 49.444z"/><path d="m184.281 346.645c-.868-.978-1.877-1.776-2.759-2.736-45.41 15.888-84.371 46.046-111.443 86.058 43.2 46.139 103.196 77.923 170.226 82.033 3.786-60.11-15.369-119.596-56.024-165.355z"/><path d="m330.797 343.891c-41.662 45.247-62.514 106.593-58.911 168.1 67.017-4.16 126.995-35.991 170.162-82.163-26.982-39.993-65.859-70.066-111.251-85.937z"/><path d="m330.517 167.707c45.042-15.908 84.278-45.654 111.453-85.62-43.146-46.108-103.06-77.905-170.005-82.08-3.702 61.476 16.838 122.288 58.552 167.7z"/><path d="m181.56 168.271c.249-.271.54-.489.787-.762 41.8-45.866 61.619-106.361 57.818-167.509-67.048 4.149-127.05 35.995-170.228 82.189 27.06 40.104 66.068 70.248 111.623 86.082z"/><path d="m512 240.174c-3.096-50.083-22.427-96.207-50.398-134.387-27.493 37.617-64.406 66.833-106.853 84.749 44.018 35.709 100.554 53.037 157.251 49.638z"/></g></svg>