<svg id="Capa_1" enable-background="new 0 0 512 512" height="512" viewBox="0 0 512 512" width="512" xmlns="http://www.w3.org/2000/svg"><g><path d="m336.815 358.026c-17.203 32.448-41.314 54.071-65.815 60.494v93.48c52.324-5.246 98.844-39.542 131.512-88.277z"/><path d="m162.508 183.719-68.806-68.806c-18.621 36.512-30.041 79.673-32.122 126.087h90.48c1.271-20.746 4.759-40.02 10.448-57.281z"/><path d="m152.06 271h-90.48c2.08 46.414 13.5 89.575 32.122 126.086l68.806-68.806c-5.689-17.26-9.177-36.534-10.448-57.28z"/><path d="m349.492 328.281 68.806 68.806c18.622-36.511 30.042-79.673 32.122-126.086h-90.48c-1.271 20.745-4.759 40.019-10.448 57.28z"/><ellipse cx="256" cy="256" rx="75" ry="135"/><path d="m241 418.521c-24.501-6.423-48.613-28.046-65.815-60.494l-65.696 65.696c32.667 48.735 79.187 83.031 131.511 88.277z"/><path d="m175.185 153.974c17.203-32.448 41.314-54.071 65.815-60.494v-93.48c-52.324 5.246-98.844 39.542-131.512 88.277z"/><path d="m271 93.479c24.501 6.423 48.613 28.046 65.815 60.494l65.696-65.696c-32.667-48.735-79.187-83.031-131.511-88.277z"/><path d="m349.492 183.719c5.689 17.261 9.177 36.535 10.448 57.281h90.48c-2.08-46.414-13.5-89.575-32.122-126.086z"/></g></svg>