<svg id="Capa_1" enable-background="new 0 0 512.001 512.001" height="512" viewBox="0 0 512.001 512.001" width="512" xmlns="http://www.w3.org/2000/svg"><g><g><path d="m212.686 164.82 38.507-13.029c3.119-1.055 6.496-1.055 9.615 0l38.507 13.029-43.315-128.018z"/><path d="m309.859 200.058-53.859-18.223-53.859 18.223-2.083 2.083-18.223 53.859 18.223 53.859 2.083 2.083 53.859 18.223 53.859-18.223 2.083-2.083 18.223-53.859-18.223-53.858z"/><path d="m161.071 182.283-53.855-53.854-107.215 108.933z"/><path d="m299.315 347.18-38.507 13.029c-1.56.527-3.184.791-4.808.791s-3.248-.264-4.808-.791l-38.507-13.029 43.315 128.018z"/><path d="m350.929 329.717 53.855 53.854 107.216-108.933z"/><path d="m0 274.638 107.216 108.933 53.855-53.854z"/><path d="m164.82 212.686-128.017 43.314 128.017 43.314-13.029-38.507c-1.055-3.118-1.055-6.497 0-9.615z"/><path d="m347.181 299.314 128.017-43.314-128.017-43.314 13.029 38.507c1.055 3.118 1.055 6.497 0 9.615z"/><path d="m329.717 350.93-55.079 161.071 108.933-107.217z"/><path d="m350.929 182.283 161.072 55.079-107.217-108.933z"/><path d="m182.284 350.93-53.855 53.854 108.933 107.216z"/><path d="m182.284 161.07 55.078-161.07-108.933 107.216z"/><path d="m274.638 0 55.079 161.07 53.854-53.854z"/></g></g></svg>