<svg id="Capa_1" enable-background="new 0 0 512 512" height="512" viewBox="0 0 512 512" width="512" xmlns="http://www.w3.org/2000/svg"><g><path d="m91.76 241c3.105-34.243 16.663-65.497 37.522-90.507l-63.611-63.611c-36.96 41.548-62.214 95.118-65.671 154.118z"/><path d="m420.24 271c-3.105 34.243-16.663 65.497-37.522 90.507l63.611 63.611c36.96-41.548 62.214-95.118 65.671-154.118z"/><path d="m91.76 271h-91.76c3.457 59 28.711 112.57 65.671 154.118l63.611-63.611c-20.86-25.01-34.417-56.264-37.522-90.507z"/><circle cx="256" cy="256" r="135"/><path d="m241 420.24c-34.243-3.105-65.497-16.663-90.507-37.522l-63.611 63.611c41.548 36.96 95.118 62.214 154.118 65.671z"/><path d="m271 0v91.76c34.243 3.105 65.497 16.663 90.507 37.522l63.611-63.611c-41.548-36.96-95.118-62.214-154.118-65.671z"/><path d="m382.718 150.493c20.859 25.01 34.417 56.265 37.522 90.507h91.76c-3.457-59-28.711-112.57-65.671-154.118z"/><path d="m361.507 382.718c-25.01 20.859-56.265 34.417-90.507 37.522v91.76c59-3.457 112.57-28.711 154.118-65.671z"/><path d="m150.493 129.282c25.01-20.859 56.265-34.417 90.507-37.522v-91.76c-59 3.457-112.57 28.711-154.118 65.671z"/></g></svg>