<svg id="Capa_1" enable-background="new 0 0 512 512" height="512" viewBox="0 0 512 512" width="512" xmlns="http://www.w3.org/2000/svg"><g><path d="m301 201.211-45-45-45 45v109.578l45 45 45-45z"/><path d="m331 201.211v109.578l90 90v-289.578z"/><path d="m181 201.211-90-90v289.578l90-90z"/><path d="m196 173.789 45-45v-128.789h-45c-47.029 0-86.47 31.293-99.792 73.997z"/><path d="m271 128.789 45 45 99.792-99.792c-13.322-42.704-52.763-73.997-99.792-73.997h-45z"/><path d="m316 338.211-45 45v128.789h45c47.029 0 86.47-31.293 99.792-73.997z"/><path d="m241 383.211-45-45-99.792 99.792c13.322 42.704 52.763 73.997 99.792 73.997h45z"/></g></svg>