<svg id="Capa_1" enable-background="new 0 0 512 512" height="512" viewBox="0 0 512 512" width="512" xmlns="http://www.w3.org/2000/svg"><g><path d="m241 375.23-104.229-104.23h-1.771v106h106z"/><path d="m135 241h1.771l104.229-103.23v-1.77h-106z"/><path d="m377 271h-1.771l-103.229 104.23v1.77h104.999z"/><path d="m407 241h105l-104.999-105.702z"/><path d="m272 136v1.77l103.229 103.23h1.771v-105z"/><path d="m191.295 191.295h129.41v129.41h-129.41z" transform="matrix(.707 -.707 .707 .707 -106.039 256)"/><path d="m241 407h-105.703l105.703 105z"/><path d="m271 106h105.703l-105.703-106z"/><path d="m407 271v105.703l105-105.703z"/><path d="m105 271h-105l105 105.702z"/><path d="m271 407v105l105.702-105z"/><path d="m241 106v-106l-105.703 106z"/><path d="m105 241v-105.703l-105 105.703z"/></g></svg>