<svg id="Capa_1" enable-background="new 0 0 512 512" height="512" viewBox="0 0 512 512" width="512" xmlns="http://www.w3.org/2000/svg"><g><path d="m366.154 216.143c-2.812-2.812-4.395-6.621-4.395-10.605v-55.298h-55.298c-3.984 0-7.793-1.582-10.605-4.395l-39.097-39.097-39.097 39.097c-2.812 2.812-6.621 4.395-10.605 4.395h-55.297v55.298c0 3.984-1.582 7.793-4.395 10.605l-39.097 39.097 39.097 39.097c2.812 2.812 4.395 6.621 4.395 10.605v55.298h55.298c3.984 0 7.793 1.582 10.605 4.395l39.097 39.097 39.097-39.097c2.812-2.812 6.621-4.395 10.605-4.395h55.298v-55.298c0-3.984 1.582-7.793 4.395-10.605l39.097-39.097z"/><path d="m271.76 0v79.327l40.913 40.913h57.876l55.329-55.329c-41.549-36.96-95.118-61.454-154.118-64.911z"/><path d="m142.971 120.24h57.876l40.913-40.913v-79.327c-59 3.457-112.57 27.951-154.118 64.911z"/><path d="m121.76 199.327v-57.876l-55.329-55.329c-36.96 41.549-62.974 95.118-66.431 154.118h80.847z"/><path d="m391.76 311.153v57.876l55.329 55.329c36.96-41.548 61.454-95.118 64.911-154.118h-79.327z"/><path d="m121.76 311.153-40.913-40.913h-80.847c3.457 59 29.471 112.57 66.431 154.118l55.329-55.329z"/><path d="m370.549 390.24h-57.876l-40.913 40.913v80.847c59-3.457 112.57-29.471 154.118-66.431z"/><path d="m391.76 141.451v57.876l40.913 40.913h79.327c-3.457-59-27.951-112.57-64.911-154.118z"/><path d="m241.76 431.153-40.913-40.913h-57.876l-55.329 55.329c41.548 36.96 95.118 62.974 154.118 66.431z"/></g></svg>