<svg id="Capa_1" enable-background="new 0 0 512 512" height="512" viewBox="0 0 512 512" width="512" xmlns="http://www.w3.org/2000/svg"><g><path d="m307.694 334.922c13.478-28.359 30.379-54.976 50.462-79.127-19.924-24.005-36.755-50.398-50.193-78.616-17.085 2.343-34.385 3.821-51.963 3.821-17.432 0-34.667-1.584-51.742-3.961-13.464 28.361-30.372 54.86-50.405 78.959 19.997 24.055 36.881 50.504 50.332 78.805 17.038-2.331 34.286-3.803 51.815-3.803 17.483 0 34.68 1.582 51.694 3.922z"/><path d="m378.424 233.354c31.485-32.181 69.179-58.742 111.698-78.19-6.101-14.11-13.429-27.561-21.87-40.221-39.608 27.341-83.353 46.375-129.661 56.724 11.088 21.931 24.398 42.611 39.833 61.687z"/><path d="m398.408 255.93c28.793 29.833 63.173 54.525 101.944 72.579 6.841-23.006 11.648-47.31 11.648-72.509 0-25.23-4.812-49.563-11.67-72.596-38.862 18.117-73.209 42.801-101.922 72.526z"/><path d="m133.587 278.491c-31.577 32.269-69.209 58.945-111.717 78.331 6.101 14.117 13.433 27.572 21.877 40.236 39.657-27.376 83.461-46.421 129.833-56.761-11.099-21.995-24.504-42.69-39.993-61.806z"/><path d="m11.651 183.477c-6.842 23.011-11.651 47.319-11.651 72.523s4.809 49.512 11.651 72.523c38.844-18.052 73.222-42.731 102.014-72.524-28.792-29.794-63.17-54.469-102.014-72.522z"/><path d="m490.137 356.809c-42.413-19.376-80.024-46.06-111.595-78.356-15.483 19.113-28.872 39.803-39.965 61.743 46.655 10.441 90.375 30.031 129.565 57.045 8.498-12.721 15.863-26.247 21.995-40.432z"/><path d="m173.679 171.491c-46.434-10.443-90.465-29.588-129.86-56.667-8.478 12.698-15.829 26.195-21.949 40.355 42.508 19.385 80.14 46.06 111.716 78.329 15.537-19.179 28.973-39.943 40.093-62.017z"/><path d="m295.63 363.254c-13.06-1.487-26.285-2.254-39.63-2.254-13.37 0-26.545 1.018-39.613 2.496 17.313 45.89 26.153 96.513 24.324 147.73 5.086.303 10.127.774 15.289.774 5.191 0 10.263-.471 15.379-.778-1.791-51.125 6.819-101.93 24.251-147.968z"/><path d="m186.158 368.291c-44.425 9.075-86.411 26.726-124.288 52.646 37.487 44.053 89.623 75.121 148.835 85.796 1.384-48.442-7.399-95.341-24.547-138.442z"/><path d="m325.774 368.401c-17.177 43.154-25.759 90.086-24.413 138.323 59.117-10.675 111.165-41.678 148.629-85.633-37.471-25.59-79.494-43.535-124.216-52.69z"/><path d="m216.407 148.451c13.099 1.511 26.281 2.549 39.593 2.549 13.414 0 26.631-1.024 39.739-2.51-17.366-45.903-26.122-96.539-24.315-147.708-5.13-.31-10.218-.782-15.424-.782-5.162 0-10.203.471-15.289.775 1.825 51.196-7.006 101.801-24.304 147.676z"/><path d="m186.191 143.615c17.122-43.076 25.898-89.941 24.514-138.349-59.145 10.664-111.225 41.675-148.702 85.65 37.618 25.633 79.761 43.528 124.188 52.699z"/><path d="m325.988 143.679c44.37-9.084 86.305-26.726 124.142-52.617-37.502-44.072-89.669-75.146-148.914-85.809-1.373 48.412 7.57 95.298 24.772 138.426z"/></g></svg>