<svg id="Capa_1" enable-background="new 0 0 514 514" height="512" viewBox="0 0 514 514" width="512" xmlns="http://www.w3.org/2000/svg"><g><path d="m182 181.5h150v150h-150z"/><path d="m331.815 151.5c-.98-58.07-28.524-116.343-74.815-150.969-46.291 34.626-73.835 92.899-74.815 150.969z"/><path d="m1 256.5c34.625 46.291 92.93 73.835 151 74.815v-149.63c-58.07.98-116.375 28.524-151 74.815z"/><path d="m182.185 361.5c.98 58.07 28.524 116.375 74.815 151 46.291-34.625 73.835-92.93 74.815-151z"/><path d="m361.815 361.315c-.754 55.01-22.18 113.063-59.143 152.185 104.013-18.915 192.413-107.315 211.328-211.328-39.122 36.963-97.175 58.389-152.185 59.143z"/><path d="m152.185 151.685c.754-55.01 22.18-112.063 59.143-151.185-104.013 18.915-192.413 106.315-211.328 210.328 39.122-36.963 97.175-58.389 152.185-59.143z"/><path d="m513 256.5c-34.625-46.291-92.93-73.835-151-74.815v149.63c58.07-.98 116.375-28.524 151-74.815z"/><path d="m152.185 361.315c-55.01-.754-113.063-22.18-152.185-59.143 18.915 104.013 107.315 192.413 211.328 211.328-36.963-39.122-58.389-97.175-59.143-152.185z"/><path d="m361.815 151.685c55.01.754 113.063 22.18 152.185 59.143-18.915-104.013-107.315-191.413-211.328-210.328 36.963 39.122 58.389 96.175 59.143 151.185z"/></g></svg>