<svg id="Capa_1" enable-background="new 0 0 512 512" height="512" viewBox="0 0 512 512" width="512" xmlns="http://www.w3.org/2000/svg"><g><path d="m162.982 342.302c7.328-16.395 15.355-32.476 23.798-48.351l-97.092-72.814c-37.827 67.755-70.171 141.45-89.688 217.226z"/><path d="m314.887 339.629c-16.904-35.728-36.636-70.195-58.887-102.861-22.251 32.666-41.982 67.134-58.887 102.861 39.346 2.695 78.428 2.695 117.774 0z"/><path d="m241 371.312c-20.874-.357-41.871-1.339-62.783-3.177l-162.851 95.984c72.867 17.717 150.795 25.863 225.634 26.973z"/><path d="m271 206.033c14.138 19.821 27.354 40.318 39.613 61.386l96.275-72.206c-37.852-62.803-82.908-121.325-135.214-173.631l-.674-.674z"/><path d="m333.783 368.135c-20.912 1.838-41.909 2.82-62.783 3.177v119.78c74.839-1.11 152.767-9.255 225.636-26.973z"/><path d="m201.387 267.421c12.259-21.068 25.475-41.567 39.613-61.388v-185.125l-.674.674c-52.306 52.306-97.365 110.83-135.216 173.635z"/><path d="m325.219 293.951c8.443 15.875 16.47 31.956 23.798 48.351l162.983 96.061c-19.517-75.776-51.865-149.475-89.691-217.229z"/></g></svg>