<svg id="Capa_1" enable-background="new 0 0 512 512" height="512" viewBox="0 0 512 512" width="512" xmlns="http://www.w3.org/2000/svg"><g><path d="m422.156 137.68 25.795-73.631-73.631 25.795-9.203 57.039z"/><path d="m89.844 137.68 57.039 9.203-9.203-57.039-73.631-25.795z"/><path d="m180 180h152v152h-152z"/><path d="m156.025 64.483c5.193 1.819 8.973 6.335 9.85 11.767l11.899 73.75h156.452l11.899-73.75c.877-5.432 4.656-9.948 9.85-11.767l103.523-36.267c-22.831-17.677-51.455-28.216-82.498-28.216h-242c-31.043 0-59.667 10.539-82.497 28.217z"/><path d="m64.483 356.003c1.819-5.192 6.336-8.972 11.767-9.848l73.75-11.9v-156.481l-73.75-11.899c-5.432-.876-9.947-4.657-11.767-9.849l-36.266-103.523c-17.679 22.83-28.217 51.454-28.217 82.497v242c0 31.043 10.539 59.667 28.217 82.498z"/><path d="m422.157 374.35-57.04-9.204 9.202 57.037 73.632 25.775z"/><path d="m355.978 447.547c-5.194-1.818-8.976-6.335-9.853-11.769l-11.904-73.778h-156.442l-11.904 73.779c-.877 5.433-4.658 9.95-9.853 11.769l-103.517 36.237c22.83 17.677 51.453 28.215 82.495 28.215h242c31.042 0 59.665-10.538 82.495-28.215z"/><path d="m483.783 52.503-36.267 103.522c-1.819 5.192-6.335 8.973-11.767 9.849l-73.749 11.9v156.481l73.75 11.899c5.431.876 9.947 4.656 11.767 9.848l36.266 103.495c17.678-22.83 28.217-51.454 28.217-82.497v-242c0-31.043-10.538-59.667-28.217-82.497z"/><path d="m137.681 422.183 9.202-57.037-57.04 9.204-25.794 73.608z"/></g></svg>