<svg id="Capa_1" enable-background="new 0 0 512 512" height="512" viewBox="0 0 512 512" width="512" xmlns="http://www.w3.org/2000/svg"><g><path d="m146.89 242.329 94.11 1.241v-101.293l-71.595-19.775-46.237 37.115z"/><path d="m241 273.572-94.87-1.251-22.962 80.062 46.237 37.115 71.595-19.775z"/><path d="m396.438 241.916 87.907-1.159 27.655-124.873-93.33 48.512z"/><path d="m365.87 272.321-94.87 1.251v96.151l71.596 19.775 46.235-37.115z"/><path d="m104.339 375.738-92.371 47.998 106.383 81.222 30.117-93.796z"/><path d="m407.661 136.263 92.37-47.999-106.382-81.222-30.117 93.797z"/><path d="m407.661 375.737-44.129 35.424 30.117 93.797 106.382-81.222z"/><path d="m104.339 136.262 44.129-35.424-30.117-93.796-106.383 81.222z"/><path d="m271 243.57 94.11-1.241 23.721-82.712-46.235-37.115-71.596 19.775z"/><path d="m241 400.846-63.299 17.484-30.075 93.67 93.374-26.789z"/><path d="m334.298 418.329-63.298-17.483v84.365l93.373 26.789z"/><path d="m418.67 347.604 93.33 48.512-27.751-125.355-87.287 1.15z"/><path d="m177.702 93.67 63.298 17.484v-84.365l-93.373-26.789z"/><path d="m271 111.154 63.298-17.483 30.075-93.671-93.373 26.789z"/><path d="m115.562 241.916-22.232-77.52-93.33-48.511 27.655 124.872z"/><path d="m115.038 271.911-87.287-1.15-27.751 125.355 93.33-48.512z"/></g></svg>