<svg height="681pt" viewBox="-64 -21 681 681.33464" width="681pt" xmlns="http://www.w3.org/2000/svg"><path d="m273.84375.0820312-276.585938 159.6874998v319.378907l276.585938 159.6875 276.589844-159.6875v-319.378907zm0 136.7460938c13.816406 0 25.015625 11.203125 25.015625 25.019531s-11.199219 25.019532-25.015625 25.019532c-13.820312 0-25.019531-11.203126-25.019531-25.019532s11.203125-25.019531 25.019531-25.019531zm-200.140625 200.140625c-13.820313 0-25.019531-11.199219-25.019531-25.015625 0-13.820313 11.199218-25.019531 25.019531-25.019531 13.816406 0 25.015625 11.199218 25.015625 25.019531 0 13.816406-11.199219 25.015625-25.015625 25.015625zm56.285156 93.820312c-13.8125 0-25.011719-11.203124-25.011719-25.019531 0-13.816406 11.199219-25.019531 25.011719-25.019531 13.824219 0 25.019531 11.203125 25.019531 25.019531 0 13.816407-11.195312 25.019531-25.019531 25.019531zm56.292969 93.816407c-13.816406 0-25.019531-11.203125-25.019531-25.019531 0-13.816407 11.203125-25.019532 25.019531-25.019532s25.019531 11.203125 25.019531 25.019532c0 13.816406-11.203125 25.019531-25.019531 25.019531zm187.632812-37.53125c-13.816406 0-25.015624-11.199219-25.015624-25.011719 0-13.824219 11.199218-25.019531 25.015624-25.019531 13.820313 0 25.019532 11.195312 25.019532 25.019531 0 13.8125-11.199219 25.011719-25.019532 25.011719zm87.5625-112.578125c-13.816406 0-25.019531-11.195313-25.019531-25.019532 0-13.8125 11.203125-25.011718 25.019531-25.011718 13.816407 0 25.019532 11.199218 25.019532 25.011718 0 13.824219-11.203125 25.019532-25.019532 25.019532zm51.425782-171.390625-220.296875 127.1875v254.375l-18.761719 10.832031-18.765625-10.832031v-254.375l-220.296875-127.1875v-21.667969l18.765625-10.832031 220.296875 127.1875 220.296875-127.1875 18.761719 10.832031zm0 0"/></svg>