<svg id="Capa_1" enable-background="new 0 0 512 512" height="512" viewBox="0 0 512 512" width="512" xmlns="http://www.w3.org/2000/svg"><g><path d="m140.566 180.519 39.953-39.953-74.638-34.685z"/><path d="m121 284.25v-56.5l-77.3 28.25z"/><path d="m180.519 371.434-39.953-39.953-34.685 74.638z"/><path d="m284.25 391h-56.5l28.25 77.3z"/><path d="m396.479 197.812 115.521 42.218v-83.44c0-3.978-1.581-7.793-4.394-10.606l-59.426-59.426z"/><path d="m227.75 121h56.5l-28.25-77.3z"/><path d="m331.482 140.566 39.952 39.953 34.685-74.638z"/><path d="m361 212.511-61.511-61.511h-86.978l-61.511 61.511v86.978l61.511 61.511h86.978l61.511-61.511z"/><path d="m391 227.75v56.5l77.3-28.25z"/><path d="m197.812 396.479-111.255 51.702 59.426 59.426c2.813 2.813 6.628 4.394 10.606 4.394h83.44z"/><path d="m314.189 396.479-42.219 115.521h83.441c3.978 0 7.793-1.581 10.606-4.394l59.426-59.426z"/><path d="m115.521 314.189-115.521-42.218v83.44c0 3.978 1.581 7.793 4.394 10.606l59.426 59.426z"/><path d="m396.479 314.188 51.702 111.255 59.426-59.426c2.813-2.813 4.394-6.628 4.394-10.606v-83.441z"/><path d="m197.811 115.521 42.218-115.521h-83.44c-3.978 0-7.793 1.581-10.606 4.394l-59.426 59.426z"/><path d="m314.189 115.521 111.255-51.701-59.426-59.426c-2.813-2.813-6.629-4.394-10.607-4.394h-83.441z"/><path d="m115.521 197.812-51.701-111.255-59.426 59.426c-2.813 2.813-4.394 6.628-4.394 10.606v83.44z"/><path d="m371.434 331.481-39.953 39.953 74.638 34.685z"/></g></svg>