<svg id="Capa_1" enable-background="new 0 0 512 512" height="512" viewBox="0 0 512 512" width="512" xmlns="http://www.w3.org/2000/svg"><g><path d="m143 143h226v226h-226z"/><path d="m347.787 399h-183.574l91.787 91.787z"/><path d="m164.213 113h183.574l-91.787-91.787z"/><g><path d="m51.272 30.059 76.728 76.728 106.787-106.787z"/><path d="m277.213 0 106.787 106.787 76.728-76.728z"/></g><path d="m399 347.787 91.787-91.787-91.787-91.787z"/><path d="m481.94 51.272-76.727 76.728 106.787 106.787z"/><path d="m30.059 51.272-30.059 183.515 106.787-106.787z"/><path d="m405.213 384 76.727 76.728 30.06-183.515z"/><path d="m128 405.213-76.728 76.728 183.515 30.059z"/><path d="m384 405.213-106.787 106.787 183.515-30.059z"/><path d="m0 277.213 30.059 183.515 76.728-76.728z"/><path d="m113 347.787v-183.574l-91.787 91.787z"/></g></svg>