<svg id="Capa_1" enable-background="new 0 0 512 512" height="512" viewBox="0 0 512 512" width="512" xmlns="http://www.w3.org/2000/svg"><g><g id="Crystal_1_"><g><path d="m256 233.789 120-120-109.395-109.394c-5.859-5.859-15.352-5.859-21.211 0l-109.394 109.394z"/><path d="m271 261.211v250.789h47.763c-1.681-4.715-2.763-9.716-2.763-15v-220.789c0-11.851 4.805-23.438 13.184-31.816l45-45c4.812-4.812 10.582-8.245 16.816-10.453v-47.73z"/><path d="m193.237 512h47.763v-250.789l-120-120v47.73c6.235 2.208 12.004 5.641 16.816 10.453l45 45c8.379 8.379 13.184 19.966 13.184 31.817v220.789c0 5.284-1.082 10.285-2.763 15z"/></g></g><g><path d="m391 336.211-45-45v205.789c0 8.284 6.716 15 15 15h30z"/><path d="m406 308.789 49.395-49.395-38.787-38.787c-5.859-5.859-15.355-5.859-21.215 0l-38.787 38.787z"/><path d="m421 336.211v175.789h30c8.284 0 15-6.716 15-15v-205.789z"/></g><g><path d="m91 336.211-45-45v205.789c0 8.284 6.716 15 15 15h30z"/><path d="m106 308.789 49.395-49.395-38.787-38.787c-5.859-5.859-15.355-5.859-21.215 0l-38.787 38.787z"/><path d="m121 336.211v175.789h30c8.284 0 15-6.716 15-15v-205.789z"/></g></g></svg>