<svg id="Capa_1" enable-background="new 0 0 512 512" height="512" viewBox="0 0 512 512" width="512" xmlns="http://www.w3.org/2000/svg"><g><path d="m372.722 160.492-80.509 80.508h108.478l75.568-77.237z"/><path d="m256 84.015 85.87-84.015h-171.74z"/><path d="m377.596 14.972 3.658 115.774 115.775 3.658z"/><path d="m139.278 351.508 80.509-80.508h-108.478l-75.568 77.237z"/><path d="m348.237 35.741-77.237 75.568v108.478l80.508-80.508z"/><path d="m271 400.691 77.237 75.568 3.271-103.538-80.508-80.508z"/><path d="m0 170.13v171.74l84.015-85.87z"/><path d="m476.259 348.237-75.568-77.237h-108.478l80.509 80.508z"/><path d="m130.747 130.746 3.657-115.774-119.433 119.432z"/><path d="m381.254 381.254-3.658 115.774 119.433-119.432z"/><path d="m139.278 160.492-103.537 3.271 75.568 77.237h108.478z"/><path d="m256 427.985-85.87 84.015h171.74z"/><path d="m427.985 256 84.015 85.87v-171.74z"/><path d="m241 400.691v-108.478l-80.508 80.508 3.271 103.538z"/><path d="m130.747 381.254-115.776-3.658 119.433 119.432z"/><path d="m241 111.309-77.237-75.568-3.271 103.538 80.508 80.508z"/></g></svg>