<svg id="Capa_1" enable-background="new 0 0 512 512" height="512" viewBox="0 0 512 512" width="512" xmlns="http://www.w3.org/2000/svg"><g><path d="m271 51.511v98.489h62.675z"/><path d="m241 362h-62.675l62.675 98.489z"/><path d="m271 180h75v152h-75z"/><path d="m166 180h75v152h-75z"/><path d="m241 150v-98.489l-62.675 98.489z"/><path d="m271 362v98.489l62.675-98.489z"/><path d="m142.766 362h-72.196l167.65 150z"/><path d="m369.234 362-95.454 150 167.65-150z"/><path d="m376 180h75v152h-75z"/><path d="m61 180h75v152h-75z"/><path d="m273.78 0 95.454 150h72.196z"/><path d="m70.57 150h72.196l95.454-150z"/></g></svg>