<svg id="Capa_1" enable-background="new 0 0 512 512" height="512" viewBox="0 0 512 512" width="512" xmlns="http://www.w3.org/2000/svg"><g><path d="m271 90h76c15.26 0 29.436 4.634 41.294 12.495l64.213-64.213c-28.625-23.873-65.405-38.282-105.507-38.282h-76z"/><path d="m473.718 59.493-64.213 64.213c7.861 11.858 12.495 26.034 12.495 41.294v76h90v-76c0-40.102-14.409-76.882-38.282-105.507z"/><path d="m90 347v-76h-90v76c0 40.102 14.409 76.882 38.282 105.507l64.213-64.213c-7.861-11.858-12.495-26.034-12.495-41.294z"/><path d="m392 347v-182c0-24.814-20.186-45-45-45h-182c-24.814 0-45 20.186-45 45v182c0 24.814 20.186 45 45 45h182c24.814 0 45-20.186 45-45z"/><path d="m422 347c0 15.26-4.634 29.436-12.495 41.294l64.213 64.213c23.873-28.625 38.282-65.405 38.282-105.507v-76h-90z"/><path d="m388.294 409.505c-11.858 7.861-26.034 12.495-41.294 12.495h-76v90h76c40.102 0 76.882-14.409 105.507-38.282z"/><path d="m241 422h-76c-15.26 0-29.436-4.634-41.294-12.495l-64.213 64.213c28.625 23.873 65.405 38.282 105.507 38.282h76z"/><path d="m123.706 102.495c11.858-7.861 26.034-12.495 41.294-12.495h76v-90h-76c-40.102 0-76.882 14.409-105.507 38.282z"/><path d="m90 241v-76c0-15.26 4.634-29.436 12.495-41.294l-64.213-64.213c-23.873 28.625-38.282 65.405-38.282 105.507v76z"/></g></svg>