<svg id="Capa_1" enable-background="new 0 0 512 512" height="512" viewBox="0 0 512 512" width="512" xmlns="http://www.w3.org/2000/svg"><g><path d="m271 185.333 47.962 47.962 109.94-54.97c-17.465-33.919-41.503-66.345-67.164-95.389-40.088-45.373-80.852-75.117-90.738-82.936z"/><path d="m301 257.759-45-45-45 45v47.573l45 45 45-45z"/><path d="m457 281.545c0-24.089-5.257-49.512-15.659-75.9l-110.341 55.171v41.459l115.99 57.995c6.619-24.254 10.01-50.638 10.01-78.725z"/><path d="m193.039 233.294 47.961-47.961v-185.333c-9.885 7.818-50.649 37.563-90.737 82.935-25.297 28.632-49.531 61.137-67.164 95.388z"/><path d="m318.962 329.797-47.962 47.961v134.242c74.239-5.372 136.236-50.22 166.242-123.063z"/><path d="m181 260.816-110.34-55.17c-10.403 26.387-15.66 51.81-15.66 75.899 0 28.086 3.391 54.47 10.01 78.724l115.99-57.994z"/><path d="m241 377.758-47.962-47.962-118.28 59.14c29.989 72.802 91.971 117.69 166.242 123.064z"/></g></svg>