<svg id="Capa_1" enable-background="new 0 0 512.001 512.001" height="512" viewBox="0 0 512.001 512.001" width="512" xmlns="http://www.w3.org/2000/svg"><g><path d="m180.818 422.702c-12.945 13.275-21.939 29.321-26.458 46.771 26.999 17.933 56.158 31.6 86.64 42.527v-119.94c-22.812 3.234-43.786 13.828-60.182 30.642z"/><path d="m347.343 115.407c-16.879 15.517-37.176 26.313-59.039 31.685l76.581 76.581c5.648-23.043 17.33-44.273 34.235-61.69 14.708-15.154 32.417-26.44 51.814-33.292-9.861-12.58-20.463-24.573-31.758-35.867-11.299-11.299-23.297-21.906-35.883-31.77-7.282 20.592-19.534 39.262-35.95 54.353z"/><path d="m271 392.047v119.953c30.486-10.929 59.649-24.599 86.651-42.534-10.509-40.963-44.578-71.495-86.651-77.419z"/><path d="m392.095 271c6.095 41.707 37.166 75.945 77.425 86.571 17.911-26.978 31.561-56.114 42.48-86.571z"/><path d="m186.148 186.148h139.706v139.706h-139.706z" transform="matrix(.707 -.707 .707 .707 -106.039 256)"/><path d="m392.052 241h119.949c-10.932-30.491-24.604-59.659-42.544-86.666-40.74 10.456-71.459 44.43-77.405 86.666z"/><path d="m399.552 350.461c-17.144-17.503-28.974-38.889-34.667-62.132l-76.581 76.581c21.802 5.357 42.05 16.109 58.901 31.556 16.48 15.109 28.782 33.829 36.087 54.483 12.587-9.865 24.586-20.472 35.886-31.772 11.293-11.293 21.894-23.284 31.754-35.863-19.197-6.78-36.742-17.91-51.38-32.853z"/><path d="m119.91 271h-119.91c10.931 30.49 24.603 59.656 42.542 86.662 16.059-4.158 30.963-12.138 43.72-23.633 18.323-16.511 30.152-38.912 33.648-63.029z"/><path d="m159.339 401.758c17.911-18.368 40.073-30.959 64.323-36.883l-76.598-76.598c-6.419 25.999-20.491 49.812-40.719 68.04-13.289 11.975-28.741 21.05-45.346 26.907 9.88 12.612 20.505 24.634 31.825 35.954 11.289 11.289 23.275 21.886 35.849 31.743 6.424-18.186 16.773-34.916 30.666-49.163z"/><path d="m119.942 241c-3.26-23.032-14.014-44.165-31.101-60.626-13.201-12.719-29.076-21.553-46.312-26.017-17.932 27-31.6 56.16-42.529 86.643z"/><path d="m109.656 158.77c18.695 18.011 31.49 40.374 37.474 64.889l76.573-76.573c-44.209-10.895-79.912-43.625-94.969-86.053-12.595 9.87-24.603 20.484-35.91 31.791-11.286 11.286-21.882 23.27-31.737 35.841 17.92 6.33 34.433 16.486 48.569 30.105z"/><path d="m357.656 42.537c-27.003-17.937-56.168-31.607-86.656-42.537v119.955c42.111-5.916 76.156-36.437 86.656-77.418z"/><path d="m241 119.924v-119.924c-30.47 10.924-59.618 24.583-86.609 42.505 10.545 40.395 44.601 71.384 86.609 77.419z"/></g></svg>