<svg id="Capa_1" enable-background="new 0 0 512 512" height="512" viewBox="0 0 512 512" width="512" xmlns="http://www.w3.org/2000/svg"><g><path d="m271 80.087 40.913 40.913h57.876l55.913-55.913-59.692-60.692c-2.813-2.813-6.621-4.395-10.606-4.395h-84.404z"/><path d="m80.087 241 40.913-40.913v-57.876l-55.913-55.913-60.692 59.692c-2.813 2.813-4.395 6.621-4.395 10.606v84.404z"/><path d="m391 142.211v57.876l40.913 40.913h80.087v-84.404c0-3.984-1.582-7.793-4.395-10.605l-60.692-59.692z"/><path d="m365.395 216.903c-2.812-2.812-4.395-6.621-4.395-10.605v-55.298h-55.298c-3.984 0-7.793-1.582-10.605-4.395l-39.097-39.096-39.097 39.097c-2.812 2.812-6.621 4.395-10.605 4.395h-55.298v55.298c0 3.984-1.582 7.793-4.395 10.605l-39.096 39.096 39.097 39.097c2.812 2.812 4.395 6.621 4.395 10.605v55.298h55.298c3.984 0 7.793 1.582 10.605 4.395l39.096 39.096 39.097-39.097c2.812-2.812 6.621-4.395 10.605-4.395h55.298v-55.298c0-3.984 1.582-7.793 4.395-10.605l39.096-39.096z"/><path d="m142.211 121h57.876l40.913-40.913v-80.087h-84.404c-3.984 0-7.793 1.582-10.605 4.395l-59.693 60.692z"/><path d="m121 369.789v-57.876l-40.913-40.913h-80.087v84.404c0 3.984 1.582 7.793 4.395 10.605l60.692 59.692z"/><path d="m369.789 391h-57.876l-40.913 40.913v80.087h84.404c3.984 0 7.793-1.582 10.605-4.395l59.692-60.692z"/><path d="m431.913 271-40.913 40.913v57.876l55.913 55.913 60.692-59.692c2.812-2.812 4.395-6.621 4.395-10.605v-84.405z"/><path d="m241 431.913-40.913-40.913h-57.876l-55.913 55.913 59.692 60.692c2.812 2.812 6.621 4.395 10.605 4.395h84.405z"/></g></svg>