<svg id="Capa_1" enable-background="new 0 0 512 512" height="512" viewBox="0 0 512 512" width="512" xmlns="http://www.w3.org/2000/svg"><g><g id="Gem_26_"><g><path d="m174.32 124.908 66.68 44.449v-110.39c-43.088-27.889-102.131-34.759-151.802-15.079-7.405 2.937-14.324 6.447-20.872 10.358z"/><path d="m341.84 158.19c-30.507 20.221-71.167 47.729-78.408 51.949-2.365 1.384-4.753 2.236-7.504 2.236-2.736-.013-5.158-.947-7.361-2.236-6.612-3.853-55.866-37.008-78.408-51.949l-44.854 67.295 130.695 130.693 130.693-130.693z"/><path d="m271 169.357 172.729-115.148c-6.555-3.92-13.482-7.438-20.898-10.38-49.612-19.643-108.702-12.799-151.831 15.134z"/><path d="m241 383.6-141.211-141.211h-88.414c21.282 59.621 76.975 107.027 167.486 183.442 19.037 16.084 39.922 33.776 62.139 52.919z"/><path d="m97.973 212.389 47.227-70.84-101.694-67.795c-27.078 26.602-43.506 64.224-43.506 109.323 0 10.311 2.302 19.929 3.765 29.312z"/></g></g><g><path d="m508.415 212.389c1.447-9.384 3.585-19.059 3.585-29.312 0-45.115-16.414-82.744-43.464-109.352l-101.735 67.824 47.227 70.84z"/><path d="m412.211 242.389-141.211 141.211v95.789l36.65-27.161c110.652-95.46 171.169-147.85 193.196-209.839z"/></g></g></svg>