<svg id="Capa_1" enable-background="new 0 0 512 512" height="512" viewBox="0 0 512 512" width="512" xmlns="http://www.w3.org/2000/svg"><g><path d="m305.707 199.905c11.93 10.583 20.481 24.892 23.784 41.095h28.577l30.398-61.479-68.441-4.415z"/><path d="m232.256 327.125-14.3 24.768 38.044 57.065 38.044-57.065-14.3-24.768c-7.468 2.5-15.446 3.875-23.744 3.875s-16.276-1.375-23.744-3.875z"/><path d="m206.293 199.905-14.317-24.798-68.442 4.414 30.399 61.479h28.577c3.302-16.203 11.853-30.512 23.783-41.095z"/><path d="m279.744 184.875 14.299-24.767-38.043-57.066-38.043 57.065 14.3 24.768c7.468-2.5 15.446-3.875 23.744-3.875s16.275 1.375 23.743 3.875z"/><path d="m305.707 312.095 14.317 24.798 68.442-4.415-30.399-61.478h-28.577c-3.302 16.203-11.853 30.512-23.783 41.095z"/><path d="m88.682 176.719-60.746-35.071c-15.424 30.685-25.919 64.354-27.936 99.352h120.466z"/><circle cx="256" cy="256" r="45"/><path d="m423.318 335.281 60.746 35.072c15.424-30.686 25.919-64.355 27.936-99.353h-120.466z"/><path d="m0 271c2.017 34.998 12.512 68.667 27.936 99.353l60.746-35.072 31.784-64.281z"/><path d="m408.318 361.261-71.56 4.615 59.546 103.137c14.246-9.425 27.652-20.346 40.008-32.702s23.277-25.762 32.702-40.008z"/><path d="m103.682 150.739 71.56-4.615-59.546-103.138c-14.246 9.425-27.652 20.346-40.008 32.702s-23.276 25.762-32.702 40.008z"/><path d="m336.758 146.124 71.56 4.615 60.696-35.042c-9.425-14.246-20.346-27.652-32.702-40.008s-25.762-23.276-40.008-32.702z"/><path d="m423.318 176.719-31.784 64.281h120.466c-2.017-34.998-12.512-68.667-27.936-99.353z"/><path d="m175.242 365.876-71.56-4.615-60.696 35.042c9.425 14.246 20.346 27.652 32.702 40.008s25.762 23.276 40.008 32.702z"/><path d="m310.777 380.876-39.777 59.666v71.458c34.998-2.017 68.666-12.512 99.352-27.936z"/><path d="m201.223 131.124 39.777-59.666v-71.458c-34.998 2.017-68.666 12.512-99.352 27.936z"/><path d="m271 0v71.459l39.777 59.665 59.576-103.188c-30.686-15.424-64.355-25.919-99.353-27.936z"/><path d="m206.293 312.095c-11.93-10.583-20.481-24.892-23.784-41.095h-28.577l-30.398 61.479 68.442 4.415z"/><path d="m241 512v-71.458l-39.777-59.666-59.575 103.188c30.685 15.424 64.354 25.919 99.352 27.936z"/></g></svg>