<svg id="Capa_1" enable-background="new 0 0 512 512" height="512" viewBox="0 0 512 512" width="512" xmlns="http://www.w3.org/2000/svg"><g><path d="m331 232.211-51.211-51.211h-47.578l-51.211 51.211v47.578l51.211 51.211h47.578l51.211-51.211z"/><path d="m512 256c0-34.028-7.823-66.462-19.972-96.169l-131.028 74.87v42.598l131.028 74.872c12.149-29.709 19.972-62.143 19.972-96.171z"/><path d="m304.706 163.495 43.799 43.799 130.547-74.597c-23.236-41.867-57.889-76.514-99.754-99.75z"/><path d="m151 234.701-131.028-74.87c-12.149 29.707-19.972 62.141-19.972 96.169s7.823 66.464 19.972 96.171l131.028-74.874z"/><path d="m163.495 207.294 43.799-43.799-74.595-130.547c-41.865 23.234-76.516 57.883-99.75 99.749z"/><path d="m348.505 304.706-43.799 43.799 74.597 130.545c41.863-23.236 76.511-57.883 99.747-99.747z"/><path d="m277.299 361h-42.596l-74.87 131.028c29.707 12.149 62.139 19.972 96.167 19.972s66.462-7.823 96.171-19.972z"/><path d="m207.294 348.505-43.799-43.799-130.545 74.597c23.236 41.865 57.883 76.514 99.749 99.749z"/><path d="m234.701 151h42.598l74.866-131.03c-29.705-12.147-62.139-19.97-96.165-19.97-34.028 0-66.46 7.823-96.167 19.972z"/></g></svg>