<svg id="Capa_1" enable-background="new 0 0 512 512" height="512" viewBox="0 0 512 512" width="512" xmlns="http://www.w3.org/2000/svg"><g><path d="m91 236.811-91-30v98.378l91-30z"/><path d="m410.054 303.157-106.897 106.897 30 90 166.897-166.897z"/><path d="m101.946 303.157-90.002 29.998 166.899 166.899 30-90z"/><path d="m101.946 208.843 106.897-106.897-30.002-89.998-166.897 166.897z"/><path d="m236.811 91h38.378l30.004-91h-98.39z"/><path d="m275.189 421h-38.378l-30.004 91h98.386z"/><path d="m421 236.811v38.378l91 30.002v-98.38z"/><path d="m410.054 208.843 90.002-29.998-166.899-166.899-30 90z"/><path d="m391 232.211-111.211-111.211h-47.578l-111.211 111.211v47.578l111.211 111.211h47.578l111.211-111.211z"/></g></svg>