<svg id="Capa_1" enable-background="new 0 0 512 512" height="512" viewBox="0 0 512 512" width="512" xmlns="http://www.w3.org/2000/svg"><g><path d="m417.605 349.325-14.546 14.546 67.885 59.396 36.661-36.661c2.813-2.813 4.395-6.622 4.395-10.606v-240c0-3.984-1.582-7.793-4.395-10.605l-36.665-36.666-67.881 59.399 14.546 14.546c2.812 2.812 4.395 6.621 4.395 10.605v165.441c0 3.984-1.582 7.793-4.395 10.605z"/><path d="m363.509 361 28.491-28.491v-153.018l-28.491-28.491h-215.018l-28.491 28.491v153.018l28.491 28.491z"/><path d="m108.94 363.871-14.546-14.546c-2.812-2.812-4.394-6.621-4.394-10.605v-165.44c0-3.984 1.582-7.793 4.395-10.605l14.546-14.546-67.881-59.4-36.665 36.666c-2.813 2.812-4.395 6.621-4.395 10.605v240c0 3.984 1.582 7.793 4.395 10.605l36.661 36.661z"/><path d="m381.797 385.133-1.472 1.472c-2.812 2.812-6.621 4.395-10.605 4.395h-227.44c-3.984 0-7.793-1.582-10.605-4.395l-1.472-1.472-67.885 59.396 32.076 32.076c2.813 2.813 6.622 4.395 10.606 4.395h302c3.984 0 7.793-1.582 10.605-4.395l32.078-32.078z"/><path d="m130.203 126.867 1.472-1.472c2.812-2.812 6.621-4.395 10.605-4.395h227.44c3.984 0 7.793 1.582 10.605 4.395l1.472 1.472 67.881-59.399-32.073-32.073c-2.812-2.813-6.621-4.395-10.605-4.395h-302c-3.984 0-7.793 1.582-10.605 4.395l-32.075 32.074z"/></g></svg>