<svg id="Capa_1" enable-background="new 0 0 512 512" height="512" viewBox="0 0 512 512" width="512" xmlns="http://www.w3.org/2000/svg"><g><path d="m241 390.692c-38.763-1.159-65.283-6.786-83.243-15.238l-87.513 87.513c40.348 29.433 97.84 47.061 170.756 49.033z"/><path d="m121 316c0-14.258 3.444-29.526 9.148-45h-124.019c-3.1 15.154-6.129 30.244-6.129 45 0 52.657 17.086 95.257 47.624 127.165l85.849-85.849c-9.948-12.389-12.473-26.9-12.473-41.316z"/><path d="m143.859 241c8.589-15.899 18.964-31.419 30.106-45.824l-85.864-85.864c-32.246 39.121-59.119 85.077-74.126 131.688z"/><path d="m354.243 375.454c-17.961 8.452-44.48 14.079-83.243 15.238v121.308c72.916-1.972 130.408-19.6 170.757-49.032z"/><path d="m151 316c0 15.732 0 45 105 45s105-29.268 105-45c0-53.73-67.222-135.967-105-160.415-37.778 24.448-105 106.685-105 160.415z"/><path d="m381.852 271c5.704 15.474 9.148 30.742 9.148 45 0 14.416-2.525 28.927-12.473 41.316l85.849 85.849c30.538-31.908 47.624-74.508 47.624-127.165 0-14.756-3.029-29.846-6.129-45z"/><path d="m193.292 172.081c16.75-18.45 33.734-33.514 47.708-42.442v-129.639c-41.356 6.555-90.145 41.311-133.028 86.761z"/><path d="m271 129.639c13.975 8.928 30.958 23.992 47.708 42.442l85.32-85.32c-42.883-45.45-91.672-80.206-133.028-86.761z"/><path d="m423.899 109.312-85.864 85.864c11.142 14.405 21.517 29.925 30.106 45.824h129.884c-15.007-46.611-41.88-92.567-74.126-131.688z"/></g></svg>